<svg width="7" height="11" xmlns="http://www.w3.org/2000/svg" xmlns:xlink="http://www.w3.org/1999/xlink" xmlns:svgjs="http://svgjs.com/svgjs" viewBox="0.2 0 6.6 11" fill="#631bb4"><path paint-order="stroke fill markers" fill-rule="evenodd" d="M1 10.168c0 .09.041.17.103.23l.516.502c.061.06.154.1.237.1a.36.36 0 0 0 .237-.1l4.804-4.67A.34.34 0 0 0 7 6c0-.08-.041-.17-.103-.23L2.093 1.1a.36.36 0 0 0-.237-.1.36.36 0 0 0-.237.1l-.516.501a.34.34 0 0 0-.103.23c0 .08.041.17.103.231L5.155 6 1.103 9.937a.342.342 0 0 0-.103.231z"/></svg>