<svg width="49" height="50" xmlns="http://www.w3.org/2000/svg" xmlns:xlink="http://www.w3.org/1999/xlink" xmlns:svgjs="http://svgjs.com/svgjs" viewBox="0 0.5 49 49" fill="#c0301c"><path paint-order="stroke fill markers" fill-rule="evenodd" d="M25.994 1.867C12.738 1.867 2 12.605 2 25.86c0 13.255 10.738 23.994 23.994 23.994s23.994-10.739 23.994-23.994c0-13.256-10.738-23.994-23.994-23.994zm0 3.428c3.481 0 6.775.883 9.667 2.41L30.466 12.9a13.74 13.74 0 0 0-4.472-.75c-1.553 0-3.053.268-4.472.75l-5.195-5.195a20.676 20.676 0 0 1 9.667-2.41zM7.838 35.528a20.682 20.682 0 0 1-2.41-9.667c0-3.481.883-6.775 2.41-9.667l5.195 5.195a13.748 13.748 0 0 0-.75 4.472c0 1.553.268 3.053.75 4.472l-5.195 5.195zm18.156 10.9c-3.481 0-6.775-.884-9.667-2.41l5.195-5.196c1.42.482 2.919.75 4.472.75 1.58 0 3.053-.268 4.472-.75l5.195 5.195a20.676 20.676 0 0 1-9.667 2.41zm0-10.284c-5.677 0-10.283-4.606-10.283-10.283s4.606-10.283 10.283-10.283 10.283 4.606 10.283 10.283-4.606 10.283-10.283 10.283zm12.961-5.81c.482-1.42.75-2.92.75-4.473s-.268-3.053-.75-4.472l5.195-5.195a20.681 20.681 0 0 1 2.41 9.667c0 3.481-.883 6.775-2.41 9.667l-5.195-5.195z"/></svg>