<svg width="54" height="41" xmlns="http://www.w3.org/2000/svg" xmlns:xlink="http://www.w3.org/1999/xlink" xmlns:svgjs="http://svgjs.com/svgjs" viewBox="0 0.16 54 40.68" fill="#c0301c"><path paint-order="stroke fill markers" fill-rule="evenodd" d="M18.599 34.724a.93.93 0 0 0 0-1.333L7.254 22l11.345-11.392a.93.93 0 0 0 0-1.333l-1.444-1.45a.922.922 0 0 0-1.328 0L2.375 21.334a.93.93 0 0 0 0 1.333l13.452 13.508a.921.921 0 0 0 1.328 0l1.444-1.45zm17.06-30.927a.94.94 0 0 0-.635-1.16l-1.79-.493c-.462-.145-.981.145-1.126.638l-10.767 37.42a.94.94 0 0 0 .635 1.16l1.79.492c.462.146.981-.144 1.126-.637l10.767-37.42zm18.966 18.869a.93.93 0 0 0 0-1.333L41.173 7.826a.922.922 0 0 0-1.328 0L38.4 9.275a.93.93 0 0 0 0 1.333L49.746 22 38.401 33.39a.93.93 0 0 0 0 1.334l1.444 1.45a.921.921 0 0 0 1.328 0l13.452-13.508z"/></svg>